<?xml version="1.0" encoding="UTF-8"?>
<svg id="Layer_1" data-name="Layer 1" xmlns="http://www.w3.org/2000/svg" viewBox="0 0 171.26 171.26">
  <defs>
    <style>
      .cls-1 {
        fill: none;
      }

      .cls-2 {
        fill: #231f20;
      }

      .cls-3 {
        fill: #fff;
      }
    </style>
  </defs>
  <path class="cls-1" d="M98.68-10.1C49.59-10.1,9.8,29.69,9.8,78.78c0,21.11,7.37,40.5,19.66,55.75,10.69-8.5,19.34-15.29,20.81-18.77.96-2.27-.45-14.59-.23-17.05.25-2.82-1.79-5.29-3.74-7.35-5.38-5.68-9.21-10.39-11.86-14.3-.4-.15-.72-.54-.67-1.01-10.88-16.78,1-18.02,4.26-17.84,4.05.23,22.42,21.64,33.43,24.93,5.42,3.1,12.02-1.31,16.44-5.73,8.8-8.78,32.2-37.31,36.55-43.08,10.11-13.39,17.47-16.92,20.12-15.42,5.15,2.91,7.14,8.1-5.38,21.77-2.1,2.29-9.7,12.96-12.55,16.97-3.6,5.07-7.04,9.75-8.81,12.14.34.24.51.66.25,1.1,1.02.33,2.01.74,2.92,1.31,1.66,1.02,3.03,2.5,3.76,4.32.68,1.68.95,3.59.5,5.34,1.87-.27,3.68.9,4.97,2.15,1.36,1.31,2.07,2.92,2.27,4.79.09.89.06,1.75-.08,2.58,1.71-.06,3.33.81,4.56,2.21.66.75,1.22,1.59,1.56,2.53.4,1.08.28,2.23.4,3.36.22,2.16-.69,4.32-1.66,6.21-2.24,4.36-5.59,7.97-8.14,12.13-.23.37-.58.48-.91.43-2,4.03-4.85,8.29-8.8,12.72-12.36,13.86-17.73,17.87-32.74,29.56-1.96,1.53-4.12,3.3-6.41,5.24,5.93,1.25,12.08,1.91,18.39,1.91,49.09,0,88.89-39.8,88.89-88.89S147.77-10.1,98.68-10.1Z"/>
  <path class="cls-2" d="M119.44,130.96c3.95-4.43,6.8-8.69,8.8-12.72-.6-.09-1.13-.73-.72-1.39.32-.52.66-1.03,1-1.53l1.79-19c-2.37,3.73-5.52,6.87-8.12,10.43.69.78,1.31,1.62,1.86,2.51.28.45.04,1.03-.38,1.28-.45.27-1.03.04-1.28-.38-.94-1.54-2.17-2.92-3.65-4.1-.41-.33-.29-1,.02-1.34.38-.4.95-.28,1.34.02.26.21.5.43.75.65.18-.25.36-.49.55-.74l3.79-20.95c-.23-.05-.4-.18-.53-.36-.04.08-.08.16-.12.24-1.52,2.45-3.42,4.74-5.3,6.92-1.92,2.23-3.98,4.34-6.15,6.32.49.54.95,1.1,1.37,1.71.3.43.02,1.04-.38,1.28-.47.28-1,.02-1.28-.38-.22-.31-.47-.63-.77-.99-.28-.33-.57-.65-.87-.95-.63-.64-1.27-1.18-1.92-1.66-.43-.31-.59-.81-.33-1.3.23-.42.89-.62,1.3-.33.55.4,1.06.83,1.55,1.27.25-.22.49-.45.73-.68l3.75-21.27c-1.47,2.08-2.97,4.14-4.56,6.13-2.11,2.64-4.37,5.17-6.6,7.71.51.51.98,1.07,1.37,1.68.28.45.04,1.03-.38,1.28-.46.28-1.02.04-1.28-.38-.06-.09-.12-.19-.18-.28,0-.01-.05-.07-.08-.11-.11-.14-.22-.28-.33-.41-.24-.27-.49-.53-.76-.77-.06-.06-.12-.11-.19-.16-.03-.03-.06-.05-.1-.08-.01,0,0,0-.03-.02-.13-.1-.27-.2-.41-.29-.32-.22-.66-.4-1.01-.57-.48-.23-.56-.87-.33-1.3.25-.48.85-.55,1.3-.33.33.16.64.35.94.54,2.25-2.56,4.52-5.1,6.65-7.76,2.17-2.71,4.17-5.57,6.16-8.42.37-.53,1.01-.5,1.42-.21,1.77-2.39,5.21-7.08,8.81-12.14,2.84-4.01,10.45-14.68,12.55-16.97,12.52-13.67,10.53-18.86,5.38-21.77-2.65-1.5-10.01,2.03-20.12,15.42-4.35,5.77-27.75,34.3-36.55,43.08-4.42,4.41-11.02,8.83-16.44,5.73-11.01-3.28-29.39-24.7-33.43-24.93-3.25-.18-15.14,1.06-4.26,17.84.01-.12.05-.24.11-.36,1.44-2.66,3.21-5.7,3.08-8.83-.11-2.59-2.33-4.77-4.68-5.54-1.16-.38-.65-2.2.51-1.82,3,.98,5.63,3.58,6.01,6.8.43,3.64-1.62,7.28-3.29,10.35-.25.46-.7.54-1.07.4,2.65,3.91,6.48,8.63,11.86,14.3,1.95,2.06,4,4.52,3.74,7.35-.22,2.46,1.19,14.77.23,17.05-1.47,3.48-10.12,10.28-20.81,18.77,12.62,15.65,30.44,26.93,50.83,31.22,2.29-1.94,4.45-3.71,6.41-5.24,15-11.69,20.38-15.7,32.74-29.56ZM140.63,19.54c.85-.87,2.16.49,1.31,1.36-1.48,1.51-2.92,3.11-3.81,5.05-.36.79-.63,1.65-.73,2.52-.08.71-.21,1.89.25,2.5.53.71,1.65.33,2.29.01.91-.45,1.77-1.04,2.56-1.68,1.7-1.37,3.1-3.03,4.18-4.93.6-1.06,2.23-.09,1.63.96-1.15,2.03-2.68,3.86-4.49,5.33-1.42,1.15-3.26,2.57-5.18,2.59-.94,0-1.88-.38-2.46-1.12-.57-.74-.69-1.73-.71-2.64-.11-3.98,2.53-7.27,5.16-9.96Z"/>
  <path class="cls-3" d="M35.51,76.66c1.67-3.08,3.72-6.71,3.29-10.35-.38-3.22-3.02-5.82-6.01-6.8-1.16-.38-1.67,1.44-.51,1.82,2.35.77,4.58,2.95,4.68,5.54.13,3.13-1.64,6.17-3.08,8.83-.07.12-.1.24-.11.36-.05.46.27.86.67,1.01.38.14.82.06,1.07-.4Z"/>
  <path class="cls-2" d="M131.54,111.16c1.39-1.93,2.76-3.9,3.89-6,.87-1.61,1.76-3.49,1.66-5.36-.02-.46-.1-.91-.11-1.38,0-.46,0-.91-.11-1.36-.21-.85-.74-1.57-1.21-2.12-1.02-1.18-2.34-1.95-3.79-1.58-.24.62-.52,1.23-.87,1.83-.22.38-.45.75-.69,1.11l-1.79,19c.97-1.41,2.01-2.76,3.01-4.15Z"/>
  <path class="cls-3" d="M131.87,93.37c1.45-.37,2.77.4,3.79,1.58.47.54,1,1.27,1.21,2.12.11.45.1.9.11,1.36,0,.47.08.92.11,1.38.1,1.88-.79,3.75-1.66,5.36-1.13,2.1-2.5,4.06-3.89,6-1,1.38-2.04,2.74-3.01,4.15-.35.5-.68,1.01-1,1.53-.41.67.12,1.3.72,1.39.33.05.69-.06.91-.43,2.55-4.15,5.9-7.77,8.14-12.13.97-1.88,1.88-4.04,1.66-6.21-.12-1.13,0-2.28-.4-3.36-.34-.94-.91-1.78-1.56-2.53-1.23-1.4-2.86-2.26-4.56-2.21-.11.68-.3,1.34-.55,1.98Z"/>
  <path class="cls-2" d="M118.01,89.05c1.72-2,3.42-4.1,4.84-6.33.65-1.02.8-1.96.71-3.16-.08-1.01-.34-2.01-.82-2.9-1.2-2.25-3.45-3.42-5.8-4.12-.24.34-.47.67-.71,1l-3.75,21.27c1.94-1.82,3.8-3.74,5.53-5.76Z"/>
  <path class="cls-3" d="M116.94,72.54c2.35.69,4.6,1.86,5.8,4.12.47.89.74,1.9.82,2.9.09,1.2-.06,2.14-.71,3.16-1.42,2.23-3.12,4.33-4.84,6.33-1.74,2.02-3.59,3.94-5.53,5.76-.24.23-.48.46-.73.68.47.42.91.87,1.33,1.34,2.17-1.99,4.23-4.09,6.15-6.32,1.88-2.18,3.78-4.47,5.3-6.92.05-.08.08-.16.12-.24-.38-.5-.32-1.33.47-1.47.04,0,.09,0,.13-.01.45-1.74.17-3.66-.5-5.34-.73-1.82-2.11-3.29-3.76-4.32-.91-.56-1.9-.98-2.92-1.31-.01.02-.02.05-.04.07-.37.52-.73,1.04-1.1,1.56Z"/>
  <path class="cls-2" d="M128.93,94.99c1.08-1.72,1.83-3.47,1.74-5.53-.07-1.59-.59-2.95-1.73-4.06-.79-.77-2.15-1.89-3.36-1.67-.14.03-.27.02-.39,0l-3.79,20.95c1.17-1.5,2.42-2.94,3.64-4.4,1.4-1.67,2.72-3.42,3.88-5.27Z"/>
  <path class="cls-3" d="M124.66,83.35c.13.17.31.31.53.36.12.03.25.03.39,0,1.2-.21,2.57.9,3.36,1.67,1.14,1.12,1.66,2.47,1.73,4.06.09,2.07-.66,3.81-1.74,5.53-1.16,1.85-2.48,3.6-3.88,5.27-1.22,1.46-2.47,2.9-3.64,4.4-.19.24-.37.49-.55.74.47.43.92.87,1.35,1.34,2.6-3.56,5.75-6.7,8.12-10.43.23-.37.47-.73.69-1.11.34-.6.63-1.21.87-1.83.25-.65.44-1.31.55-1.98.14-.83.17-1.69.08-2.58-.2-1.87-.91-3.48-2.27-4.79-1.29-1.25-3.1-2.41-4.97-2.15-.04,0-.09,0-.13.01-.79.14-.85.97-.47,1.47Z"/>
  <path class="cls-2" d="M111.75,95.5c-.49-.45-1-.88-1.55-1.27-.4-.29-1.07-.09-1.3.33-.26.49-.1.98.33,1.3.66.47,1.29,1.02,1.92,1.66.3.31.59.62.87.95.3.36.55.67.77.99.28.4.81.66,1.28.38.4-.24.68-.85.38-1.28-.42-.6-.89-1.16-1.37-1.71-.42-.47-.86-.92-1.33-1.34Z"/>
  <path class="cls-2" d="M120.86,105.4c-.25-.22-.49-.45-.75-.65-.39-.31-.95-.43-1.34-.02-.31.33-.44,1.01-.02,1.34,1.47,1.18,2.71,2.56,3.65,4.1.26.42.83.65,1.28.38.42-.25.65-.83.38-1.28-.54-.89-1.17-1.73-1.86-2.51-.42-.47-.87-.92-1.35-1.34Z"/>
  <path class="cls-2" d="M116.41,70.01c-1.99,2.85-3.98,5.71-6.16,8.42-2.13,2.66-4.4,5.2-6.65,7.76.53.34,1.02.75,1.46,1.19,2.23-2.54,4.49-5.07,6.6-7.71,1.59-1.99,3.09-4.05,4.56-6.13.24-.33.47-.67.71-1,.37-.52.73-1.04,1.1-1.56.02-.02.02-.05.04-.07.26-.44.09-.86-.25-1.1-.41-.29-1.04-.32-1.42.21Z"/>
  <path class="cls-2" d="M103.61,86.2c-.3-.2-.61-.39-.94-.54-.44-.21-1.04-.14-1.3.33-.22.42-.14,1.07.33,1.3.35.17.69.36,1.01.57.14.09.27.19.41.29.02.01.02.01.03.02.03.03.06.05.1.08.06.05.13.11.19.16.27.24.52.5.76.77.11.13.22.27.33.41.03.04.07.1.08.11.06.09.12.18.18.28.26.42.83.65,1.28.38.41-.25.66-.84.38-1.28-.39-.61-.86-1.17-1.37-1.68-.45-.45-.93-.85-1.46-1.19Z"/>
  <path class="cls-3" d="M138.65,33.26c1.91-.02,3.76-1.44,5.18-2.59,1.82-1.47,3.34-3.3,4.49-5.33.6-1.06-1.02-2.02-1.63-.96-1.08,1.9-2.48,3.56-4.18,4.93-.79.64-1.65,1.22-2.56,1.68-.64.32-1.76.7-2.29-.01-.46-.61-.34-1.8-.25-2.5.1-.86.37-1.73.73-2.52.89-1.94,2.33-3.54,3.81-5.05.85-.87-.46-2.23-1.31-1.36-2.63,2.69-5.27,5.98-5.16,9.96.03.91.14,1.9.71,2.64.58.74,1.52,1.13,2.46,1.12Z"/>
</svg>